<mxfile host="app.diagrams.net" modified="2023-08-19T08:13:27.890Z" agent="Mozilla/5.0 (Windows NT 10.0; Win64; x64) AppleWebKit/537.36 (KHTML, like Gecko) Chrome/116.0.0.0 Safari/537.36" etag="kzOnhLW3w0uFlBDzBwER" version="21.6.8" type="github">
  <diagram name="第 1 页" id="0sNIeCyk4VETosC3RPXi">
    <mxGraphModel dx="1434" dy="750" grid="1" gridSize="10" guides="1" tooltips="1" connect="1" arrows="1" fold="1" page="1" pageScale="1" pageWidth="827" pageHeight="1169" math="0" shadow="0">
      <root>
        <mxCell id="0" />
        <mxCell id="1" parent="0" />
        <mxCell id="_DFCqWn3S408b0KWMAyg-2" value="" style="rounded=0;whiteSpace=wrap;html=1;dashed=1;" vertex="1" parent="1">
          <mxGeometry x="260" y="310" width="440" height="320" as="geometry" />
        </mxCell>
        <mxCell id="_DFCqWn3S408b0KWMAyg-4" style="edgeStyle=orthogonalEdgeStyle;rounded=0;orthogonalLoop=1;jettySize=auto;html=1;exitX=0.5;exitY=1;exitDx=0;exitDy=0;" edge="1" parent="1" source="_DFCqWn3S408b0KWMAyg-1" target="_DFCqWn3S408b0KWMAyg-3">
          <mxGeometry relative="1" as="geometry" />
        </mxCell>
        <mxCell id="_DFCqWn3S408b0KWMAyg-5" value="小文件" style="edgeLabel;html=1;align=center;verticalAlign=middle;resizable=0;points=[];" vertex="1" connectable="0" parent="_DFCqWn3S408b0KWMAyg-4">
          <mxGeometry x="0.02" y="-1" relative="1" as="geometry">
            <mxPoint as="offset" />
          </mxGeometry>
        </mxCell>
        <mxCell id="_DFCqWn3S408b0KWMAyg-10" style="edgeStyle=orthogonalEdgeStyle;rounded=0;orthogonalLoop=1;jettySize=auto;html=1;exitX=0.5;exitY=1;exitDx=0;exitDy=0;entryX=0.5;entryY=0;entryDx=0;entryDy=0;" edge="1" parent="1" source="_DFCqWn3S408b0KWMAyg-1" target="_DFCqWn3S408b0KWMAyg-9">
          <mxGeometry relative="1" as="geometry">
            <Array as="points">
              <mxPoint x="400" y="270" />
              <mxPoint x="580" y="270" />
            </Array>
          </mxGeometry>
        </mxCell>
        <mxCell id="_DFCqWn3S408b0KWMAyg-12" value="大文件" style="edgeLabel;html=1;align=center;verticalAlign=middle;resizable=0;points=[];" vertex="1" connectable="0" parent="_DFCqWn3S408b0KWMAyg-10">
          <mxGeometry x="-0.1481" y="-4" relative="1" as="geometry">
            <mxPoint as="offset" />
          </mxGeometry>
        </mxCell>
        <mxCell id="_DFCqWn3S408b0KWMAyg-1" value="SpringGateway" style="rounded=0;whiteSpace=wrap;html=1;fillColor=#d5e8d4;strokeColor=#82b366;" vertex="1" parent="1">
          <mxGeometry x="340" y="190" width="120" height="50" as="geometry" />
        </mxCell>
        <mxCell id="_DFCqWn3S408b0KWMAyg-3" value="&lt;font style=&quot;font-size: 14px;&quot;&gt;池化内存&lt;/font&gt;" style="rounded=0;whiteSpace=wrap;html=1;fillColor=#dae8fc;strokeColor=#6c8ebf;" vertex="1" parent="1">
          <mxGeometry x="345" y="430" width="110" height="60" as="geometry" />
        </mxCell>
        <mxCell id="_DFCqWn3S408b0KWMAyg-18" style="edgeStyle=orthogonalEdgeStyle;rounded=0;orthogonalLoop=1;jettySize=auto;html=1;exitX=0.5;exitY=1;exitDx=0;exitDy=0;" edge="1" parent="1" source="_DFCqWn3S408b0KWMAyg-6" target="_DFCqWn3S408b0KWMAyg-16">
          <mxGeometry relative="1" as="geometry" />
        </mxCell>
        <mxCell id="_DFCqWn3S408b0KWMAyg-6" value="&lt;font style=&quot;font-size: 14px;&quot;&gt;新分配池化内存&lt;br&gt;&lt;font style=&quot;font-size: 14px;&quot; color=&quot;#ff6666&quot;&gt;无法完全回收&lt;/font&gt;&lt;/font&gt;" style="rounded=0;whiteSpace=wrap;html=1;fillColor=#dae8fc;strokeColor=#6c8ebf;" vertex="1" parent="1">
          <mxGeometry x="520" y="430" width="120" height="60" as="geometry" />
        </mxCell>
        <mxCell id="_DFCqWn3S408b0KWMAyg-11" style="edgeStyle=orthogonalEdgeStyle;rounded=0;orthogonalLoop=1;jettySize=auto;html=1;exitX=0.5;exitY=1;exitDx=0;exitDy=0;" edge="1" parent="1" source="_DFCqWn3S408b0KWMAyg-9" target="_DFCqWn3S408b0KWMAyg-6">
          <mxGeometry relative="1" as="geometry" />
        </mxCell>
        <mxCell id="_DFCqWn3S408b0KWMAyg-9" value="&lt;font style=&quot;font-size: 14px;&quot;&gt;unsafe&lt;/font&gt;" style="ellipse;whiteSpace=wrap;html=1;aspect=fixed;fillColor=#f8cecc;strokeColor=#b85450;" vertex="1" parent="1">
          <mxGeometry x="550" y="330" width="60" height="60" as="geometry" />
        </mxCell>
        <mxCell id="_DFCqWn3S408b0KWMAyg-15" value="&lt;font style=&quot;font-size: 14px;&quot;&gt;&lt;b&gt;Netty&lt;/b&gt;&lt;/font&gt;" style="text;html=1;align=center;verticalAlign=middle;resizable=0;points=[];autosize=1;strokeColor=none;fillColor=none;" vertex="1" parent="1">
          <mxGeometry x="255" y="310" width="60" height="30" as="geometry" />
        </mxCell>
        <mxCell id="_DFCqWn3S408b0KWMAyg-16" value="&lt;font color=&quot;#ff6666&quot; style=&quot;font-size: 14px;&quot;&gt;堆外内存泄漏&lt;/font&gt;" style="rounded=0;whiteSpace=wrap;html=1;fillColor=#fff2cc;strokeColor=#d6b656;" vertex="1" parent="1">
          <mxGeometry x="520" y="550" width="120" height="60" as="geometry" />
        </mxCell>
      </root>
    </mxGraphModel>
  </diagram>
</mxfile>
